PathFileType	4	(X/Y/Z)	Run_500 02
DataRate	CameraRate	NumFrames	NumMarkers	Units	OrigDataRate	OrigDataStartFrame	OrigNumFrames
100	100	6	42	mm	100	3	128
Frame#	Time	LASI			RASI			LPSI			RPSI			RTH1			RTH2			RTH3			LTH1			LTH2			LTH3			RTB1			RTB2			RTB3			LTB1			LTB2			LTB3			RCAL			RTOE			RMT5			LCAL			LTOE			LMT5			LACR			RACR			CLAV			C7			RUA1			RUA2			RUA3			RLEL			RMEL			LUA1			LUA2			LUA3			LLEL			LMEL			RFAsuperior			RFAradius			RFAulna			LFAsuperior			LFAradius			LFAulna			
		X1	Y1	Z1	X2	Y2	Z2	X3	Y3	Z3	X4	Y4	Z4	X5	Y5	Z5	X6	Y6	Z6	X7	Y7	Z7	X8	Y8	Z8	X9	Y9	Z9	X10	Y10	Z10	X11	Y11	Z11	X12	Y12	Z12	X13	Y13	Z13	X14	Y14	Z14	X15	Y15	Z15	X16	Y16	Z16	X17	Y17	Z17	X18	Y18	Z18	X19	Y19	Z19	X20	Y20	Z20	X21	Y21	Z21	X22	Y22	Z22	X23	Y23	Z23	X24	Y24	Z24	X25	Y25	Z25	X26	Y26	Z26	X27	Y27	Z27	X28	Y28	Z28	X29	Y29	Z29	X30	Y30	Z30	X31	Y31	Z31	X32	Y32	Z32	X33	Y33	Z33	X34	Y34	Z34	X35	Y35	Z35	X36	Y36	Z36	X37	Y37	Z37	X38	Y38	Z38	X39	Y39	Z39	X40	Y40	Z40	X41	Y41	Z41	X42	Y42	Z42	

1	0.13	744.943137	1013.031325	-421.370045	734.679466	1019.337074	-165.467089	578.640217	1042.576988	-343.666961	567.803983	1032.135965	-239.929808	686.627382	819.579818	-111.628407	808.378066	748.359678	-115.171534	804.887323	621.938157	-156.490457	632.3757430000001	822.867114	-465.266847	653.84247	679.581724	-437.170034	563.346201	586.110468	-423.544203	951.164238	423.528654	-227.551766	937.679214	360.772467	-164.037494	974.361581	258.016112	-234.929781	404.973175	438.206896	-355.378204	325.980109	468.980725	-428.579535	248.062313	421.474655	-361.787313	910.176699	91.342804	-244.951443	1123.742931	163.353691	-254.959742	1087.60746	114.72447	-170.551798	143.247118	526.186005	-368.770992	44.928658	324.685453	-321.549351	29.745233	372.016677	-414.589559	768.981873	1471.613596	-446.775223	707.47397	1491.849144	-121.220768	780.719229	1422.467512	-243.082597	674.580736	1508.231579	-297.650405	618.5762109999999	1446.693032	-56.980576	546.4538669999999	1401.826742	-113.211686	533.732577	1348.437502	-58.840166	453.339611	1270.954146	-48.501575	469.199235	1258.290693	-128.390917	753.912382	1383.759806	-533.578752	695.766737	1303.467574	-528.5716640000001	729.690084	1241.41164	-574.5160519999999	749.828411	1156.024666	-593.794641	692.7238589999999	1144.411117	-531.8193680000001	525.075731	1192.368124	-16.232919	645.466278	1086.435208	-14.939933	586.443664	1044.283445	-23.757508	838.838121	1153.737921	-526.315424	922.293953	1160.13692	-388.186775	944.342562	1098.440051	-420.799721	
2	0.14	742.945029	1008.80208	-422.023914	732.765212	1016.432449	-164.272521	574.566112	1034.212533	-342.506972	565.869222	1024.360792	-239.434537	686.042534	816.9371149999999	-112.357462	809.3960980000001	748.035713	-116.621567	801.61052	618.234251	-155.376948	635.225869	814.950465	-464.153926	662.1686549999999	672.50059	-437.320555	577.391192	576.286398	-423.558131	938.508547	413.478556	-228.982949	921.495548	350.091438	-165.389214	954.009867	245.862937	-236.585385	426.007508	430.673797	-356.27232	346.137388	471.319378	-425.643777	265.564755	426.355232	-363.050424	878.44595	90.24519100000001	-247.459377	1096.50158	136.315166	-254.85771	1054.654668	94.95443899999999	-169.515123	174.160579	540.624651	-362.48465	57.453443	346.029062	-327.717187	47.959772	399.798859	-417.629269	768.0224040000001	1465.439125	-446.476341	710.532725	1485.035254	-120.068188	780.90212	1416.171031	-243.421477	674.593019	1503.176379	-295.407952	623.791754	1438.28948	-53.188732	549.575693	1392.423644	-106.19065	540.748338	1338.006412	-51.827057	462.323297	1258.983424	-39.064617	475.056654	1246.902042	-119.557493	748.552496	1378.183196	-532.738211	688.493257	1299.621383	-527.169088	720.542578	1236.954302	-573.9607099999999	737.929876	1151.297197	-593.665887	681.949767	1141.23771	-532.308892	536.582692	1182.336455	-8.483646999999999	659.814996	1079.925628	-10.788237	601.777208	1036.341638	-17.587296	828.436657	1143.192304	-528.832911	914.435141	1141.41283	-391.493014	931.850607	1079.579862	-425.079604	
3	0.15	741.090794	1003.36204	-422.478041	731.26584	1012.482099	-162.636166	570.053175	1024.990836	-341.881108	564.491913	1018.129078	-239.070712	685.264087	811.809275	-113.258526	810.073461	745.607184	-120.023882	794.806145	611.720284	-155.05977	636.964458	805.588087	-461.868222	671.5014609999999	664.744488	-438.080582	592.763941	565.824111	-424.185569	924.049568	401.778308	-229.507736	903.096602	338.367899	-167.169296	929.886722	232.393884	-237.534005	449.004267	422.281587	-357.782895	368.18551	472.340615	-422.514323	285.992052	427.788324	-364.703489	841.264156	91.785675	-250.177289	1063.15653	106.066991	-256.146291	1015.05782	75.867864	-168.803644	204.01976	551.454512	-354.938585	77.558018	361.061329	-334.140847	72.04326500000001	420.688844	-420.29468	766.21872	1458.56394	-446.482553	713.468806	1477.614538	-118.823503	781.051929	1409.122398	-243.853988	674.076621	1497.345241	-293.02954	629.333212	1428.741744	-49.172089	553.117581	1381.581779	-98.255156	548.474911	1326.284435	-44.083633	472.409776	1245.796434	-28.926407	482.53358	1234.109721	-109.732775	741.885435	1371.705047	-531.91822	679.881075	1294.9439	-525.467431	709.898108	1231.830137	-573.334739	724.251221	1146.118486	-593.433999	669.7683939999999	1137.515294	-532.719647	549.375053	1171.450166	-0.013762	675.554879	1073.090473	-6.084958	618.777304	1027.84439	-10.666648	816.720948	1131.76322	-532.3330539999999	905.149182	1120.385983	-396.740447	917.4811539999999	1058.987643	-431.127846	
4	0.16	739.50499	996.9063650000001	-422.621807	729.9795	1007.251521	-160.85022	565.584909	1014.890848	-342.039	563.077594	1013.06967	-238.900744	682.954961	805.710672	-113.43665	807.369334	739.798888	-122.652895	786.108833	603.681101	-155.676505	638.860185	794.68079	-458.794664	681.933191	656.580272	-439.414795	609.604575	554.5808019999999	-424.938563	908.532414	389.996175	-228.913757	884.338443	327.864039	-169.819957	901.564085	219.862177	-236.846986	473.747715	415.369039	-359.435675	392.716907	472.262119	-419.784203	309.619418	426.438328	-366.248755	799.922525	94.408445	-252.782575	1024.090315	81.087644	-258.362471	971.262626	62.187598	-168.931277	233.254744	559.1022850000001	-347.772718	104.053513	369.996936	-339.865697	100.897174	434.03989	-422.547612	763.633097	1451.430203	-446.813423	716.340468	1470.086077	-117.448251	781.285184	1401.551693	-244.370665	673.234225	1491.03133	-290.640588	635.2510600000001	1418.256189	-44.994352	557.3841169999999	1369.413329	-89.705703	557.1162	1313.466378	-35.713754	483.749295	1231.686055	-18.314747	491.573413	1220.160269	-99.413264	734.236599	1364.805362	-531.201581	670.35888	1289.639182	-523.659972	698.3111249999999	1226.419525	-572.679288	709.305418	1140.769215	-593.123964	657.098249	1133.441777	-533.032807	563.61391	1160.057039	8.751072000000001	692.6227239999999	1066.15178	-1.17456	637.331311	1019.072149	-3.371956	803.956115	1119.588488	-536.6517669999999	894.650385	1097.521002	-403.740411	901.491268	1037.086691	-439.170404	
5	0.17	738.06648	989.4139730000001	-422.306403	728.263478	1000.846774	-158.994192	561.673059	1004.68186	-343.150569	560.902798	1008.175782	-238.891254	678.912147	801.424987	-112.545025	800.66589	731.853383	-122.678754	778.009012	596.7734809999999	-156.849216	642.445697	783.168404	-455.798641	693.2827590000001	648.695104	-440.751177	628.340056	543.206089	-425.242448	891.759564	380.212619	-228.318438	865.641524	321.020068	-173.364346	869.136245	211.273714	-235.427221	500.565411	410.672133	-360.647998	420.347449	470.182327	-417.980501	336.425279	422.899706	-367.378678	755.286115	96.89421400000001	-254.845652	980.152818	67.163726	-260.20646	925.028897	56.114451	-169.691147	263.285086	563.2545280000001	-342.350135	135.166823	373.472318	-344.004317	133.781625	439.954825	-424.44359	760.484742	1444.629597	-447.476484	719.16574	1463.030394	-115.972586	781.592519	1393.94108	-244.917286	672.392379	1484.699897	-288.338381	641.843154	1407.185203	-40.69743	562.692444	1356.236325	-80.657207	567.144537	1300.037824	-26.870797	496.63934	1216.995202	-7.443947	502.020461	1205.362517	-88.941335	726.035089	1358.137663	-530.675242	660.433083	1284.165186	-521.755088	686.346687	1221.262695	-571.941973	693.690939	1135.716279	-592.859144	644.197657	1129.344756	-533.051644	579.5518980000001	1148.625532	17.355097	710.903907	1059.381966	3.496644	657.271078	1010.458048	3.945808	790.004856	1107.006577	-541.722729	883.103219	1073.45852	-412.235252	884.08192	1014.48327	-449.519698	
6	0.18	736.4428810000001	980.870053	-421.553456	725.654589	994.187643	-156.864316	558.689764	996.020595	-345.185429	557.698748	1003.212442	-238.710288	674.19068	800.427034	-111.060025	791.959393	724.36509	-121.105214	771.105605	592.531014	-157.972319	648.532252	772.842043	-453.825833	705.9655289999999	642.2303000000001	-441.684961	649.677537	533.37306	-424.982531	872.4798	373.382003	-229.369965	845.032529	318.301598	-176.917032	833.794606	207.83583	-235.260067	529.94406	407.732428	-360.875187	451.212304	465.010872	-417.047511	366.110239	417.695784	-367.961659	708.176315	99.064992	-255.997967	932.866402	63.215174	-260.558733	877.010231	55.982124	-170.198302	294.670051	563.529322	-339.334975	169.323589	371.910298	-345.933552	169.650335	438.867508	-425.992894	756.846282	1438.763452	-448.438755	721.870884	1456.917755	-114.538878	781.831335	1387.003182	-245.453997	671.847973	1478.910204	-286.215783	649.430382	1396.224625	-36.450388	569.383859	1342.796311	-71.180227	579.06875	1286.920664	-17.924073	511.468387	1202.308689	3.549481	513.788283	1190.134535	-78.205793	717.7931579999999	1352.366884	-530.368785	650.663923	1279.25284	-519.577628	674.421825	1216.940556	-570.983638	678.003285	1131.554747	-592.854571	630.8622789999999	1125.725665	-532.454015	597.47484	1137.752066	25.346936	730.341938	1053.130788	7.463882	678.497083	1002.504261	10.920678	774.504311	1094.782618	-547.250905	870.245064	1049.032952	-422.121358	865.276346	992.103264	-462.334186	
